# MagicaVoxel @ Ephtracy

# group
o 

# material
mtllib Car.mtl
usemtl palette

# normals
vn -1 0 0
vn 1 0 0
vn 0 0 1
vn 0 0 -1
vn 0 -1 0
vn 0 1 0

# texcoords
vt 0.810547 0.5
vt 0.880859 0.5
vt 0.955078 0.5

# verts
v 1 2 -1.7
v 1 2 -1.9
v 1 2 -2.3
v 1 2 -2.5
v 1 2.2 -1.7
v 1 2.2 -1.9
v 1 2.2 -2.3
v 1 2.2 -2.5
v 1.1 2.1 -1.9
v 1.1 2.1 -2.3
v 1.1 2.1 -2.5
v 1.1 2.1 -2.7
v 1.1 2.2 -1.7
v 1.1 2.2 -1.9
v 1.1 2.2 -2.3
v 1.1 2.2 -2.4
v 1.1 2.2 -2.5
v 1.1 2.2 -2.6
v 1.1 2.2 -2.7
v 1.1 2.3 -2.5
v 1.1 2.3 -2.6
v 1.1 2.4 -1.7
v 1.1 2.4 -2.4
v 1.1 2.4 -2.5
v 1.4 2 -1.7
v 1.4 2 -1.9
v 1.4 2 -2.3
v 1.4 2 -2.5
v 1.4 2.1 -1.7
v 1.4 2.1 -1.9
v 1.4 2.1 -2.3
v 1.4 2.1 -2.5
v 1.1 2 -1.7
v 1.1 2 -1.9
v 1.1 2 -2.3
v 1.1 2 -2.5
v 1.1 2.1 -1.7
v 1.1 2.1 -1.9
v 1.1 2.1 -2.3
v 1.1 2.1 -2.5
v 1.4 2.1 -1.9
v 1.4 2.1 -2.3
v 1.4 2.1 -2.5
v 1.4 2.1 -2.7
v 1.4 2.2 -1.7
v 1.4 2.2 -1.9
v 1.4 2.2 -2.3
v 1.4 2.2 -2.4
v 1.4 2.2 -2.5
v 1.4 2.2 -2.6
v 1.4 2.2 -2.7
v 1.4 2.3 -2.5
v 1.4 2.3 -2.6
v 1.4 2.4 -1.7
v 1.4 2.4 -2.4
v 1.4 2.4 -2.5
v 1.5 2 -1.7
v 1.5 2 -1.9
v 1.5 2 -2.3
v 1.5 2 -2.5
v 1.5 2.2 -1.7
v 1.5 2.2 -1.9
v 1.5 2.2 -2.3
v 1.5 2.2 -2.5
v 1 2 -1.7
v 1 2.2 -1.7
v 1.1 2 -1.7
v 1.1 2.1 -1.7
v 1.1 2.2 -1.7
v 1.1 2.4 -1.7
v 1.4 2 -1.7
v 1.4 2.1 -1.7
v 1.4 2.2 -1.7
v 1.4 2.4 -1.7
v 1.5 2 -1.7
v 1.5 2.2 -1.7
v 1 2 -2.3
v 1 2.2 -2.3
v 1.1 2 -2.3
v 1.1 2.1 -2.3
v 1.1 2.2 -2.3
v 1.4 2 -2.3
v 1.4 2.1 -2.3
v 1.4 2.2 -2.3
v 1.5 2 -2.3
v 1.5 2.2 -2.3
v 1 2 -1.9
v 1 2.2 -1.9
v 1.1 2 -1.9
v 1.1 2.1 -1.9
v 1.1 2.2 -1.9
v 1.4 2 -1.9
v 1.4 2.1 -1.9
v 1.4 2.2 -1.9
v 1.5 2 -1.9
v 1.5 2.2 -1.9
v 1 2 -2.5
v 1 2.2 -2.5
v 1.1 2 -2.5
v 1.1 2.1 -2.5
v 1.1 2.2 -2.5
v 1.1 2.3 -2.5
v 1.1 2.4 -2.5
v 1.4 2 -2.5
v 1.4 2.1 -2.5
v 1.4 2.2 -2.5
v 1.4 2.3 -2.5
v 1.4 2.4 -2.5
v 1.5 2 -2.5
v 1.5 2.2 -2.5
v 1.1 2.2 -2.6
v 1.1 2.3 -2.6
v 1.4 2.2 -2.6
v 1.4 2.3 -2.6
v 1.1 2.1 -2.7
v 1.1 2.2 -2.7
v 1.4 2.1 -2.7
v 1.4 2.2 -2.7
v 1 2 -1.7
v 1.1 2 -1.7
v 1.4 2 -1.7
v 1.5 2 -1.7
v 1 2 -1.9
v 1.1 2 -1.9
v 1.4 2 -1.9
v 1.5 2 -1.9
v 1 2 -2.3
v 1.1 2 -2.3
v 1.4 2 -2.3
v 1.5 2 -2.3
v 1 2 -2.5
v 1.1 2 -2.5
v 1.4 2 -2.5
v 1.5 2 -2.5
v 1.1 2.1 -1.7
v 1.4 2.1 -1.7
v 1.1 2.1 -1.9
v 1.4 2.1 -1.9
v 1.1 2.1 -2.3
v 1.4 2.1 -2.3
v 1.1 2.1 -2.5
v 1.4 2.1 -2.5
v 1.1 2.1 -2.7
v 1.4 2.1 -2.7
v 1 2.2 -1.7
v 1.1 2.2 -1.7
v 1.4 2.2 -1.7
v 1.5 2.2 -1.7
v 1 2.2 -1.9
v 1.1 2.2 -1.9
v 1.4 2.2 -1.9
v 1.5 2.2 -1.9
v 1 2.2 -2.3
v 1.1 2.2 -2.3
v 1.4 2.2 -2.3
v 1.5 2.2 -2.3
v 1.1 2.2 -2.4
v 1.4 2.2 -2.4
v 1 2.2 -2.5
v 1.1 2.2 -2.5
v 1.4 2.2 -2.5
v 1.5 2.2 -2.5
v 1.1 2.2 -2.6
v 1.4 2.2 -2.6
v 1.1 2.2 -2.7
v 1.4 2.2 -2.7
v 1.1 2.3 -2.5
v 1.4 2.3 -2.5
v 1.1 2.3 -2.6
v 1.4 2.3 -2.6
v 1.1 2.4 -1.7
v 1.4 2.4 -1.7
v 1.1 2.4 -2.4
v 1.4 2.4 -2.4
v 1.1 2.4 -2.5
v 1.4 2.4 -2.5

# faces
f 5/3/1 2/3/1 1/3/1
f 6/3/1 2/3/1 5/3/1
f 7/3/1 4/3/1 3/3/1
f 8/3/1 4/3/1 7/3/1
f 14/2/1 10/2/1 9/2/1
f 15/2/1 10/2/1 14/2/1
f 17/2/1 12/2/1 11/2/1
f 18/2/1 12/2/1 17/2/1
f 19/2/1 12/2/1 18/2/1
f 20/1/1 17/1/1 16/1/1
f 20/1/1 18/1/1 17/1/1
f 21/1/1 18/1/1 20/1/1
f 22/2/1 16/2/1 15/2/1
f 22/2/1 14/2/1 13/2/1
f 22/2/1 15/2/1 14/2/1
f 23/1/1 20/1/1 16/1/1
f 23/2/1 16/2/1 22/2/1
f 24/1/1 20/1/1 23/1/1
f 29/3/1 26/3/1 25/3/1
f 30/3/1 26/3/1 29/3/1
f 31/3/1 28/3/1 27/3/1
f 32/3/1 28/3/1 31/3/1
f 33/3/2 34/3/2 37/3/2
f 37/3/2 34/3/2 38/3/2
f 35/3/2 36/3/2 39/3/2
f 39/3/2 36/3/2 40/3/2
f 41/2/2 42/2/2 46/2/2
f 46/2/2 42/2/2 47/2/2
f 43/2/2 44/2/2 49/2/2
f 49/2/2 44/2/2 50/2/2
f 50/2/2 44/2/2 51/2/2
f 48/1/2 49/1/2 52/1/2
f 49/1/2 50/1/2 52/1/2
f 52/1/2 50/1/2 53/1/2
f 47/2/2 48/2/2 54/2/2
f 45/2/2 46/2/2 54/2/2
f 46/2/2 47/2/2 54/2/2
f 48/1/2 52/1/2 55/1/2
f 54/2/2 48/2/2 55/2/2
f 55/1/2 52/1/2 56/1/2
f 57/3/2 58/3/2 61/3/2
f 61/3/2 58/3/2 62/3/2
f 59/3/2 60/3/2 63/3/2
f 63/3/2 60/3/2 64/3/2
f 67/3/3 66/3/3 65/3/3
f 68/3/3 66/3/3 67/3/3
f 69/3/3 66/3/3 68/3/3
f 72/2/3 70/2/3 69/2/3
f 72/2/3 69/2/3 68/2/3
f 73/2/3 70/2/3 72/2/3
f 74/2/3 70/2/3 73/2/3
f 75/3/3 72/3/3 71/3/3
f 75/3/3 73/3/3 72/3/3
f 76/3/3 73/3/3 75/3/3
f 79/3/3 78/3/3 77/3/3
f 80/3/3 78/3/3 79/3/3
f 81/3/3 78/3/3 80/3/3
f 85/3/3 83/3/3 82/3/3
f 85/3/3 84/3/3 83/3/3
f 86/3/3 84/3/3 85/3/3
f 87/3/4 88/3/4 89/3/4
f 89/3/4 88/3/4 90/3/4
f 90/3/4 88/3/4 91/3/4
f 92/3/4 93/3/4 95/3/4
f 93/3/4 94/3/4 95/3/4
f 95/3/4 94/3/4 96/3/4
f 97/3/4 98/3/4 99/3/4
f 99/3/4 98/3/4 100/3/4
f 100/3/4 98/3/4 101/3/4
f 102/1/4 103/1/4 107/1/4
f 107/1/4 103/1/4 108/1/4
f 105/3/4 106/3/4 109/3/4
f 104/3/4 105/3/4 109/3/4
f 109/3/4 106/3/4 110/3/4
f 111/1/4 112/1/4 113/1/4
f 113/1/4 112/1/4 114/1/4
f 115/2/4 116/2/4 117/2/4
f 117/2/4 116/2/4 118/2/4
f 123/3/5 120/3/5 119/3/5
f 124/3/5 120/3/5 123/3/5
f 125/3/5 122/3/5 121/3/5
f 126/3/5 122/3/5 125/3/5
f 131/3/5 128/3/5 127/3/5
f 132/3/5 128/3/5 131/3/5
f 133/3/5 130/3/5 129/3/5
f 134/3/5 130/3/5 133/3/5
f 137/2/5 136/2/5 135/2/5
f 138/2/5 136/2/5 137/2/5
f 139/2/5 138/2/5 137/2/5
f 140/2/5 138/2/5 139/2/5
f 141/2/5 140/2/5 139/2/5
f 142/2/5 140/2/5 141/2/5
f 143/2/5 142/2/5 141/2/5
f 144/2/5 142/2/5 143/2/5
f 145/3/6 146/3/6 149/3/6
f 149/3/6 146/3/6 150/3/6
f 147/3/6 148/3/6 151/3/6
f 151/3/6 148/3/6 152/3/6
f 153/3/6 154/3/6 157/3/6
f 155/3/6 156/3/6 158/3/6
f 153/3/6 157/3/6 159/3/6
f 159/3/6 157/3/6 160/3/6
f 158/3/6 156/3/6 161/3/6
f 161/3/6 156/3/6 162/3/6
f 163/2/6 164/2/6 165/2/6
f 165/2/6 164/2/6 166/2/6
f 167/1/6 168/1/6 169/1/6
f 169/1/6 168/1/6 170/1/6
f 171/2/6 172/2/6 173/2/6
f 173/2/6 172/2/6 174/2/6
f 173/1/6 174/1/6 175/1/6
f 175/1/6 174/1/6 176/1/6
